<svg id="Layer_1" data-name="Layer 1" xmlns="http://www.w3.org/2000/svg" viewBox="0 0 42 26"><defs><style>.cls-1,.cls-2,.cls-4,.cls-5{fill:none;}.cls-1,.cls-2,.cls-4,.cls-5,.cls-6{stroke:#000;stroke-miterlimit:10;}.cls-1,.cls-6{stroke-width:0.28px;}.cls-2{stroke-width:0.26px;}.cls-3{fill:#f87061;}.cls-4{stroke-width:0.51px;}.cls-5{stroke-width:0.4px;}</style></defs><title>icons</title><line class="cls-1" x1="32.71" y1="13.1" x2="42.22" y2="13.1"/><line class="cls-1" x1="26.59" y1="19.22" x2="42.22" y2="19.22"/><path class="cls-2" d="M8.64,9c4.75.32,9.16-.44,12.73-3.93V4.94c-.33,0-.65,0-1,0l-3.69.36a4.45,4.45,0,0,0-1,.18,2.47,2.47,0,0,0-.67.41A17.3,17.3,0,0,1,9.3,8.71l-.69.19Z"/><path class="cls-3" d="M26.37,12.14c1-.1,1.59-.61,1.58-1.58A1.41,1.41,0,0,0,26.39,9a1.45,1.45,0,0,0-1.56,1.52A1.54,1.54,0,0,0,26.37,12.14Z"/><path class="cls-4" d="M10.57,23.37c.33.67.63,1.33,1,2,.22.39.65.23,1,.17a1.47,1.47,0,0,0,1.15-2c0-.1-.17-.25-.27-.25-.9,0-1.8,0-2.69,0C10.68,23.29,10.64,23.32,10.57,23.37Z"/><path class="cls-5" d="M23.81,11.28A6.28,6.28,0,0,0,19.8,9a9.78,9.78,0,0,0-3.1.17L11.06,10l-.18,0a1.47,1.47,0,0,1-1.27-.17C9,9.52,8.4,9.23,7.8,8.9a1.75,1.75,0,0,1-.31-.28A19.42,19.42,0,0,0,19.07.87l-1.35.24A20.4,20.4,0,0,0,8.85,5.37C7.88,6.18,7,7.1,6.07,8a.82.82,0,0,1-.36.23,7.56,7.56,0,0,0-3.49,2.05l-1,1a1.85,1.85,0,0,0,.16,2.89,4.18,4.18,0,0,0,2.72.93H6.31a.48.48,0,0,1,.53.33C7.4,16.61,8,17.84,8.55,19.07a.53.53,0,0,0,.55.36c1,0,2,0,3,0a.56.56,0,0,0,.54-.29c.2-.33.42-.65.65-1a.82.82,0,0,1,.25-.19l.07.07c-.15.56-.31,1.11-.43,1.68-.06.27-.19.34-.45.34H8.19a2.62,2.62,0,0,0-2.66,2.26c0,.28.11.29.32.29H18.53a1.63,1.63,0,0,0,1.78-1.41,1.89,1.89,0,0,0-.08-.7c0-.15-.07-.3-.1-.43.56-.13,1.1-.2,1.61-.36A4.5,4.5,0,0,0,25,16,5.61,5.61,0,0,0,23.81,11.28Z"/><circle class="cls-6" cx="3.82" cy="10.78" r="0.34"/></svg>