<svg id="Layer_1" data-name="Layer 1" xmlns="http://www.w3.org/2000/svg" viewBox="0 0 512 512"><defs><style>.cls-1{fill:#fff;}</style></defs><title>icon</title><rect x="111.79" width="149.8" height="31.65"/><path d="M471.31,106.48H283.71v29.16H448a33.09,33.09,0,0,1,33.09,33.09v281A33.08,33.08,0,0,1,448,482.84H64A33.08,33.08,0,0,1,31,449.75v-281A33.09,33.09,0,0,1,64,135.64H85.17V106.48H40.69A40.69,40.69,0,0,0,0,147.17V471.31A40.69,40.69,0,0,0,40.69,512H471.31A40.69,40.69,0,0,0,512,471.31V147.17A40.69,40.69,0,0,0,471.31,106.48Z"/><rect class="cls-1" x="27.85" y="131.35" width="456.29" height="358.59" rx="32.96"/><path d="M183.54,168.61A83.41,83.41,0,1,0,267,252,83.4,83.4,0,0,0,183.54,168.61Zm0,150.65A67.24,67.24,0,1,1,250.78,252,67.23,67.23,0,0,1,183.54,319.26Z"/></svg>