<svg id="Layer_1" data-name="Layer 1" xmlns="http://www.w3.org/2000/svg" viewBox="0 0 74 15"><defs><style>.cls-1{fill:#f87061;}</style></defs><title>icons</title><path d="M4.69,14.58A5.85,5.85,0,0,1,.08,12.8l1-1a4.64,4.64,0,0,0,3.67,1.47c2,0,3.17-.92,3.17-2.49a2.16,2.16,0,0,0-.64-1.68A3,3,0,0,0,5.5,8.47L3.93,8.23a4.84,4.84,0,0,1-2.47-1,3.19,3.19,0,0,1-1-2.51C.44,2.41,2.08.9,4.75.9a5.38,5.38,0,0,1,4,1.47l-.92.93A4.24,4.24,0,0,0,4.69,2.14c-1.8,0-2.84,1-2.84,2.5a1.94,1.94,0,0,0,.61,1.55,3.78,3.78,0,0,0,1.81.73l1.48.23A4.32,4.32,0,0,1,8.2,8.1a3.36,3.36,0,0,1,1.14,2.66C9.34,13.12,7.49,14.58,4.69,14.58Z"/><path d="M20.69,14.47V8.72a2.15,2.15,0,0,0-2.27-2.46A2.19,2.19,0,0,0,16.1,8.72v5.75H14.74V1H16.1V6.19a3.31,3.31,0,0,1,2.61-1.14,3.15,3.15,0,0,1,3.34,3.44v6Z"/><path d="M33.88,14.47v-1a3.44,3.44,0,0,1-2.63,1.15,3.3,3.3,0,0,1-2.4-.87,3.47,3.47,0,0,1-1-2.61V5.17h1.36v5.72c0,1.65.87,2.48,2.27,2.48a2.2,2.2,0,0,0,2.33-2.48V5.17h1.36v9.3Z"/><path class="cls-1" d="M43.87,14.47A2.28,2.28,0,0,1,41.49,12V6.26H40.31v-1h1.18V2.31h1.36V5.22h2v1h-2v5.67c0,.85.39,1.36,1.26,1.36h.72v1.18Z"/><path class="cls-1" d="M52.78,14.47A2.29,2.29,0,0,1,50.4,12V6.26H49.23v-1H50.4V2.31h1.36V5.22h2v1h-2v5.67c0,.85.4,1.36,1.27,1.36h.72v1.18Z"/><path d="M61.42,14.47A2.22,2.22,0,0,1,59.05,12V1h1.36V11.93c0,.91.31,1.36,1.25,1.36h.74v1.18Z"/><path d="M67.73,10.18c0,2,1,3.21,2.74,3.21a3,3,0,0,0,2.43-1.06l.93.81a4.23,4.23,0,0,1-3.4,1.44c-2.46,0-4.07-1.48-4.07-4.76,0-3,1.46-4.77,3.82-4.77S74,6.79,74,9.55v.63Zm4.63-2.57a2.39,2.39,0,0,0-4.35,0,3.72,3.72,0,0,0-.28,1.54h4.91A4.07,4.07,0,0,0,72.36,7.61Z"/></svg>